<?xml version="1.0" ?><svg data-name="Layer 15" id="Layer_15" viewBox="0 0 32 32" xmlns="http://www.w3.org/2000/svg"><title/><path d="M7.5,21a4.5,4.5,0,0,1-.21-8.99A7,7,0,1,1,20.96,9.36,5.762,5.762,0,0,1,23,9a6,6,0,0,1,0,12H7.5Z" style="fill:#a9e5ff"/><path d="M29,23H28a1,1,0,0,0,0,2h1A1,1,0,0,0,29,23Z" style="fill:#158fcc"/><path d="M25,23H21.5a2.5,2.5,0,0,0,0,5,1,1,0,0,0,0-2,0.5,0.5,0,0,1,0-1H25A1,1,0,0,0,25,23Z" style="fill:#158fcc"/><path d="M7.5,22H11a1,1,0,0,0,0-2H7.5a3.5,3.5,0,0,1-.164-6.991,1,1,0,0,0,.913-1.284A6.014,6.014,0,0,1,14,4a5.942,5.942,0,0,1,5.964,5.446,1,1,0,0,0,1.347.85A4.8,4.8,0,0,1,23,10a5,5,0,0,1,0,10H16.271a1,1,0,1,1,.865-1.5,1,1,0,1,0,1.728-1.007A3,3,0,1,0,16.271,22H23A7,7,0,1,0,21.77,8.107,7.929,7.929,0,0,0,14,2a8.009,8.009,0,0,0-8,8,8.154,8.154,0,0,0,.087,1.188A5.5,5.5,0,0,0,7.5,22Z" style="fill:#158fcc"/><path d="M13.5,23H3a1,1,0,0,0,0,2H13.5a1.5,1.5,0,1,1-1.47,1.8,1,1,0,1,0-1.96.4A3.5,3.5,0,1,0,13.5,23Z" style="fill:#158fcc"/></svg>