<svg data-v-6805eed4="" version="1.0" xmlns="http://www.w3.org/2000/svg" xmlns:xlink="http://www.w3.org/1999/xlink" width="100%" height="100%" viewBox="0 0 340.000000 250.000000" preserveAspectRatio="xMidYMid meet" color-interpolation-filters="sRGB" style="margin: auto;">   <g data-v-6805eed4="" fill="#333" class="iconlinesvg-g iconlinesvg" transform="translate(73.21063232421875,109.51536655426025)"><g class="tp-name"><g transform="translate(0, 0)"><g><g class="imagesvg"><g><rect fill="#333" fill-opacity="0" stroke-width="2" x="0" y="0" width="22.67012343352546" height="30.969267825367425" class="image-rect"></rect> <svg x="0" y="0" width="22.67012343352546" height="30.969267825367425" filtersec="colorsb7556633305" class="image-svg-svg primary" style="overflow: visible;"><svg xmlns="http://www.w3.org/2000/svg" viewBox="0 -0.0050000352784991264 89.30998992919922 122.00499725341797"><title>资源 40</title><path d="M15.72 62.81a15.71 15.71 0 0 1 15.71 15.71V15.71a15.71 15.71 0 0 0-31.43 0v62.81a15.71 15.71 0 0 1 15.72-15.71z" fill="#f0f"></path><path d="M73.6 90.55H42.39a11 11 0 0 1-11-11v-1A15.71 15.71 0 0 1 0 78.52v1.07A42.43 42.43 0 0 0 42.39 122H73.6a15.71 15.71 0 0 0 0-31.42z" fill="#00d5ff"></path><circle cx="15.71" cy="78.52" r="15.71" fill="#2300fd"></circle></svg></svg> <!----></g></g></g></g><g transform="translate(26, 2.2354416671263646)"><g data-gra="path-name" fill="#333" transform="scale(1)"><path d="M4.62 0.22Q3.63 0.22 3.00-0.35Q2.36-0.91 2.36-1.96L2.36-1.96L2.36-15.99Q2.36-17.05 3.00-17.59Q3.63-18.14 4.62-18.14L4.62-18.14Q5.60-18.14 6.25-17.59Q6.91-17.05 6.91-15.99L6.91-15.99L6.91-1.96Q6.91-0.91 6.25-0.35Q5.60 0.22 4.62 0.22L4.62 0.22ZM4.62-21.37Q3.38-21.37 2.65-22.05Q1.93-22.72 1.93-23.81L1.93-23.81Q1.93-24.90 2.65-25.55Q3.38-26.21 4.62-26.21L4.62-26.21Q5.82-26.21 6.56-25.55Q7.31-24.90 7.31-23.81L7.31-23.81Q7.31-22.72 6.58-22.05Q5.85-21.37 4.62-21.37L4.62-21.37Z" transform="translate(-1.926494345718901, 26.2075928917609)"></path></g></g><g transform="translate(35, 2.2354416671263646)"><g data-gra="path-name" fill="#333" transform="scale(1)"><path d="M11.34-22.25Q9.67-22.14 8.91-21.23Q8.14-20.32 8.14-18.61L8.14-18.61L8.14-17.77L11.23-17.77Q13.27-17.77 13.27-16.07L13.27-16.07Q13.27-14.36 11.23-14.36L11.23-14.36L8.14-14.36L8.14-1.96Q8.14-0.91 7.51-0.36Q6.87 0.18 5.89 0.18L5.89 0.18Q4.91 0.18 4.25-0.36Q3.60-0.91 3.60-1.96L3.60-1.96L3.60-14.36L1.78-14.36Q-0.25-14.36-0.25-16.07L-0.25-16.07Q-0.25-17.77 1.78-17.77L1.78-17.77L3.60-17.77L3.60-18.03Q3.60-21.45 5.40-23.39Q7.20-25.34 10.47-25.59L10.47-25.59L11.41-25.66Q12.87-25.77 13.47-25.35Q14.07-24.94 14.07-24.06L14.07-24.06Q14.07-22.50 12.29-22.32L12.29-22.32L11.34-22.25Z" transform="translate(0.25444264943457195, 26.2075928917609)"></path></g></g><g transform="translate(53, 2.2354416671263646)"><g data-gra="path-name" fill="#333" transform="scale(1)"><path d="M16.43-4.87Q17.05-4.87 17.43-4.40Q17.81-3.93 17.81-3.13L17.81-3.13Q17.81-2.00 16.47-1.24L16.47-1.24Q15.23-0.55 13.67-0.13Q12.10 0.29 10.69 0.29L10.69 0.29Q6.40 0.29 3.89-2.18Q1.38-4.65 1.38-8.94L1.38-8.94Q1.38-11.67 2.47-13.78Q3.56-15.88 5.54-17.05Q7.52-18.21 10.03-18.21L10.03-18.21Q12.43-18.21 14.21-17.16Q15.99-16.10 16.97-14.18Q17.96-12.25 17.96-9.63L17.96-9.63Q17.96-8.07 16.58-8.07L16.58-8.07L5.85-8.07Q6.07-5.56 7.27-4.38Q8.47-3.20 10.76-3.20L10.76-3.20Q11.92-3.20 12.81-3.49Q13.70-3.78 14.83-4.29L14.83-4.29Q15.92-4.87 16.43-4.87L16.43-4.87ZM10.14-15.01Q8.29-15.01 7.18-13.85Q6.07-12.69 5.85-10.50L5.85-10.50L14.07-10.50Q13.99-12.72 12.98-13.87Q11.96-15.01 10.14-15.01L10.14-15.01Z" transform="translate(-1.3812600969305329, 26.2075928917609)"></path></g></g><g transform="translate(73, 2.2354416671263646)"><g data-gra="path-name" fill="#333" transform="scale(1)"><path d="M5.09 0.22Q4.03 0.22 3.40-0.42Q2.76-1.05 2.76-2.14L2.76-2.14L2.76-23.41Q2.76-24.46 3.36-25.04Q3.96-25.63 5.02-25.63L5.02-25.63L13.96-25.63Q18.07-25.63 20.36-23.57Q22.65-21.52 22.65-17.81L22.65-17.81Q22.65-14.10 20.36-12.03Q18.07-9.96 13.96-9.96L13.96-9.96L7.45-9.96L7.45-2.14Q7.45-1.05 6.82-0.42Q6.18 0.22 5.09 0.22L5.09 0.22ZM13.38-13.56Q18.21-13.56 18.21-17.77L18.21-17.77Q18.21-21.99 13.38-21.99L13.38-21.99L7.45-21.99L7.45-13.56L13.38-13.56Z" transform="translate(-2.7625201938610657, 26.2075928917609)"></path></g></g><g transform="translate(96, 2.2354416671263646)"><g data-gra="path-name" fill="#333" transform="scale(1)"><path d="M10.07-18.21Q13.78-18.21 15.58-16.38Q17.37-14.54 17.37-10.80L17.37-10.80L17.37-1.93Q17.37-0.95 16.79-0.38Q16.21 0.18 15.19 0.18L15.19 0.18Q14.25 0.18 13.65-0.40Q13.05-0.98 13.05-1.93L13.05-1.93L13.05-2.73Q12.43-1.31 11.10-0.51Q9.78 0.29 8.03 0.29L8.03 0.29Q6.25 0.29 4.80-0.44Q3.34-1.16 2.51-2.44Q1.67-3.71 1.67-5.27L1.67-5.27Q1.67-7.23 2.67-8.36Q3.67-9.49 5.92-10.00Q8.18-10.50 12.14-10.50L12.14-10.50L13.05-10.50L13.05-11.34Q13.05-13.12 12.29-13.94Q11.52-14.76 9.81-14.76L9.81-14.76Q8.76-14.76 7.67-14.45Q6.58-14.14 5.09-13.56L5.09-13.56Q4.14-13.09 3.71-13.09L3.71-13.09Q3.05-13.09 2.64-13.56Q2.22-14.03 2.22-14.79L2.22-14.79Q2.22-15.41 2.53-15.87Q2.84-16.32 3.56-16.72L3.56-16.72Q4.83-17.41 6.60-17.81Q8.36-18.21 10.07-18.21L10.07-18.21ZM8.94-2.98Q10.76-2.98 11.90-4.20Q13.05-5.42 13.05-7.34L13.05-7.34L13.05-8.11L12.39-8.11Q9.96-8.11 8.61-7.89Q7.27-7.67 6.69-7.12Q6.11-6.58 6.11-5.63L6.11-5.63Q6.11-4.47 6.92-3.73Q7.74-2.98 8.94-2.98L8.94-2.98Z" transform="translate(-1.6720516962843293, 26.2075928917609)"></path></g></g><g transform="translate(115, 2.2354416671263646)"><g data-gra="path-name" fill="#333" transform="scale(1)"><path d="M4.62 0.22Q3.63 0.22 3.00-0.35Q2.36-0.91 2.36-1.96L2.36-1.96L2.36-23.66Q2.36-24.72 3.00-25.26Q3.63-25.81 4.62-25.81L4.62-25.81Q5.60-25.81 6.25-25.26Q6.91-24.72 6.91-23.66L6.91-23.66L6.91-1.96Q6.91-0.91 6.25-0.35Q5.60 0.22 4.62 0.22L4.62 0.22Z" transform="translate(-2.3626817447495956, 26.2075928917609)"></path></g></g><g transform="translate(123, 2.2354416671263646)"><g data-gra="path-name" fill="#333" transform="scale(1)"><path d="M16.43-4.87Q17.05-4.87 17.43-4.40Q17.81-3.93 17.81-3.13L17.81-3.13Q17.81-2.00 16.47-1.24L16.47-1.24Q15.23-0.55 13.67-0.13Q12.10 0.29 10.69 0.29L10.69 0.29Q6.40 0.29 3.89-2.18Q1.38-4.65 1.38-8.94L1.38-8.94Q1.38-11.67 2.47-13.78Q3.56-15.88 5.54-17.05Q7.52-18.21 10.03-18.21L10.03-18.21Q12.43-18.21 14.21-17.16Q15.99-16.10 16.97-14.18Q17.96-12.25 17.96-9.63L17.96-9.63Q17.96-8.07 16.58-8.07L16.58-8.07L5.85-8.07Q6.07-5.56 7.27-4.38Q8.47-3.20 10.76-3.20L10.76-3.20Q11.92-3.20 12.81-3.49Q13.70-3.78 14.83-4.29L14.83-4.29Q15.92-4.87 16.43-4.87L16.43-4.87ZM10.14-15.01Q8.29-15.01 7.18-13.85Q6.07-12.69 5.85-10.50L5.85-10.50L14.07-10.50Q13.99-12.72 12.98-13.87Q11.96-15.01 10.14-15.01L10.14-15.01Z" transform="translate(-1.3812600969305329, 26.2075928917609)"></path></g></g><g transform="translate(143, 2.2354416671263646)"><g data-gra="path-name" fill="#333" transform="scale(1)"><path d="M11.60-3.16Q13.41-3.05 13.41-1.53L13.41-1.53Q13.41-0.65 12.70-0.20Q12.00 0.25 10.69 0.18L10.69 0.18L9.71 0.11Q3.60-0.33 3.60-6.43L3.60-6.43L3.60-14.36L1.78-14.36Q0.80-14.36 0.27-14.79Q-0.25-15.23-0.25-16.07L-0.25-16.07Q-0.25-16.90 0.27-17.34Q0.80-17.77 1.78-17.77L1.78-17.77L3.60-17.77L3.60-21.12Q3.60-22.10 4.22-22.68Q4.83-23.26 5.89-23.26L5.89-23.26Q6.91-23.26 7.52-22.68Q8.14-22.10 8.14-21.12L8.14-21.12L8.14-17.77L11.23-17.77Q12.21-17.77 12.74-17.34Q13.27-16.90 13.27-16.07L13.27-16.07Q13.27-15.23 12.74-14.79Q12.21-14.36 11.23-14.36L11.23-14.36L8.14-14.36L8.14-6.11Q8.14-3.42 10.61-3.24L10.61-3.24L11.60-3.16Z" transform="translate(0.25444264943457184, 26.2075928917609)"></path></g></g><g transform="translate(160, 2.2354416671263646)"><g data-gra="path-name" fill="#333" transform="scale(1)"><path d="M11.60-3.16Q13.41-3.05 13.41-1.53L13.41-1.53Q13.41-0.65 12.70-0.20Q12.00 0.25 10.69 0.18L10.69 0.18L9.71 0.11Q3.60-0.33 3.60-6.43L3.60-6.43L3.60-14.36L1.78-14.36Q0.80-14.36 0.27-14.79Q-0.25-15.23-0.25-16.07L-0.25-16.07Q-0.25-16.90 0.27-17.34Q0.80-17.77 1.78-17.77L1.78-17.77L3.60-17.77L3.60-21.12Q3.60-22.10 4.22-22.68Q4.83-23.26 5.89-23.26L5.89-23.26Q6.91-23.26 7.52-22.68Q8.14-22.10 8.14-21.12L8.14-21.12L8.14-17.77L11.23-17.77Q12.21-17.77 12.74-17.34Q13.27-16.90 13.27-16.07L13.27-16.07Q13.27-15.23 12.74-14.79Q12.21-14.36 11.23-14.36L11.23-14.36L8.14-14.36L8.14-6.11Q8.14-3.42 10.61-3.24L10.61-3.24L11.60-3.16Z" transform="translate(0.25444264943457184, 26.2075928917609)"></path></g></g><g transform="translate(177, 2.2354416671263646)"><g data-gra="path-name" fill="#333" transform="scale(1)"><path d="M16.43-4.87Q17.05-4.87 17.43-4.40Q17.81-3.93 17.81-3.13L17.81-3.13Q17.81-2.00 16.47-1.24L16.47-1.24Q15.23-0.55 13.67-0.13Q12.10 0.29 10.69 0.29L10.69 0.29Q6.40 0.29 3.89-2.18Q1.38-4.65 1.38-8.94L1.38-8.94Q1.38-11.67 2.47-13.78Q3.56-15.88 5.54-17.05Q7.52-18.21 10.03-18.21L10.03-18.21Q12.43-18.21 14.21-17.16Q15.99-16.10 16.97-14.18Q17.96-12.25 17.96-9.63L17.96-9.63Q17.96-8.07 16.58-8.07L16.58-8.07L5.85-8.07Q6.07-5.56 7.27-4.38Q8.47-3.20 10.76-3.20L10.76-3.20Q11.92-3.20 12.81-3.49Q13.70-3.78 14.83-4.29L14.83-4.29Q15.92-4.87 16.43-4.87L16.43-4.87ZM10.14-15.01Q8.29-15.01 7.18-13.85Q6.07-12.69 5.85-10.50L5.85-10.50L14.07-10.50Q13.99-12.72 12.98-13.87Q11.96-15.01 10.14-15.01L10.14-15.01Z" transform="translate(-1.3812600969305329, 26.2075928917609)"></path></g></g></g> <!----></g><defs v-gra="od"></defs></svg>